<?xml version="1.0" encoding="utf-8"?>
<!-- Generator: Adobe Illustrator 23.0.6, SVG Export Plug-In . SVG Version: 6.00 Build 0)  -->
<svg version="1.1" id="Layer_1" xmlns="http://www.w3.org/2000/svg" xmlns:xlink="http://www.w3.org/1999/xlink" x="0px" y="0px"
	 viewBox="0 0 24 24" style="enable-background:new 0 0 24 24;" xml:space="preserve">
<polygon points="1.2,5.8 7.7,5.8 7.7,0.6 "/>
<path d="M7.7,9.7c0-0.6-0.6-0.9-1.4-0.9c-0.3,0-0.5,0-0.8,0.1v1.8h0.8C7.1,10.6,7.7,10.3,7.7,9.7z"/>
<path d="M18.3,9.6c0-0.6-0.5-0.8-1.3-0.8c-0.2,0-0.5,0-0.7,0v1.6H17C17.8,10.4,18.3,10.1,18.3,9.6z"/>
<path d="M8.7,0v6c0,0-0.1,0.5-0.5,0.5H1V24h22V0H8.7z M4.7,8.4c0.5-0.1,1-0.1,1.5-0.1C7,8.3,7.6,8.4,8,8.7C8.3,9,8.5,9.3,8.5,9.6
	c0,0.6-0.5,1.1-1.2,1.2v0c0.5,0.1,0.8,0.5,0.9,1c0.2,0.7,0.3,1.1,0.5,1.3H7.9c-0.1-0.1-0.2-0.6-0.4-1.2c-0.2-0.7-0.5-0.9-1.2-0.9
	H5.5v2.1H4.7V8.4z M8,21.8l-0.8-1.1c-0.3-0.4-0.5-0.7-0.7-1h0c-0.2,0.3-0.3,0.5-0.7,1l-0.7,1.1H4.2l1.9-2.5L4.3,17h0.9L6,18.1
	c0.2,0.3,0.4,0.6,0.6,0.8h0c0.2-0.3,0.3-0.5,0.6-0.8L8,17h0.9L7,19.3L9,21.8H8z M12.1,19.8v2.1h-0.8v-2.1L9.3,17h0.9l0.9,1.3
	c0.2,0.4,0.4,0.7,0.6,1h0c0.2-0.3,0.4-0.6,0.6-1l0.9-1.3h0.9L12.1,19.8z M14.3,13c-0.6,0.2-1.2,0.3-1.9,0.3c-0.9,0-1.7-0.2-2.3-0.6
	c-0.5-0.4-0.9-1.1-0.9-1.8c0-1.4,1.3-2.5,3.3-2.5c0.7,0,1.3,0.1,1.5,0.2l-0.2,0.5c-0.4-0.1-0.9-0.2-1.4-0.2c-1.5,0-2.5,0.7-2.5,1.9
	c0,1.2,0.9,2,2.4,2c0.5,0,0.9-0.1,1.1-0.1v-1.4h-1.2v-0.5h2L14.3,13z M18.9,21.8h-4.5v-0.4l3.4-3.9v0h-3.1V17h4.1v0.4l-3.4,3.9v0
	h3.4V21.8z M18.8,12.8c-0.4,0.3-1.1,0.4-2.1,0.4c-0.4,0-0.8,0-1.2-0.1V8.4c0.5-0.1,1-0.1,1.4-0.1c0.8,0,1.3,0.1,1.7,0.4
	c0.3,0.2,0.5,0.5,0.5,0.9c0,0.5-0.4,0.9-1,1.1v0c0.6,0.1,1.3,0.5,1.3,1.2C19.3,12.2,19.2,12.5,18.8,12.8L18.8,12.8z"/>
<path d="M16.9,10.9h-0.7v1.9c0.2,0,0.4,0,0.7,0c0.8,0,1.6-0.2,1.6-0.9C18.5,11.2,17.8,10.9,16.9,10.9z"/>
</svg>
