<?xml version="1.0" encoding="utf-8"?>
<!-- Generator: Adobe Illustrator 23.0.6, SVG Export Plug-In . SVG Version: 6.00 Build 0)  -->
<svg version="1.1" id="Layer_1" xmlns="http://www.w3.org/2000/svg" xmlns:xlink="http://www.w3.org/1999/xlink" x="0px" y="0px"
	 viewBox="0 0 24 24" style="enable-background:new 0 0 24 24;" xml:space="preserve">
<g transform="translate(0.000000,534.000000) scale(0.100000,-0.100000)">
	<path d="M108.8,5338.86c-9.71-0.96-20.58-3.41-29.81-6.73c-4.9-1.78-4.95-1.73,2.64-3.27c6.06-1.3,14.95-4.23,20.53-6.78
		c5.14-2.4,13.22-7.21,15.77-9.37l1.92-1.63l-2.98-0.05c-4.28,0-13.08-1.25-18.8-2.64c-9.9-2.4-20.58-7.16-29.47-13.17
		c-4.81-3.22-12.93-9.85-12.93-10.52c0-0.19,2.02-0.19,4.47,0c10.72,0.77,23.61-1.35,33.08-5.53l2.55-1.1l-3.32-1.59
		c-9.09-4.23-19.13-12.88-24.76-21.29c-2.79-4.13-6.49-10.91-6.15-11.2c0.1-0.05,2.21,0.43,4.71,1.11c4.04,1.06,5.58,1.2,12.98,1.25
		c6.78,0.05,9.04-0.14,11.68-0.87c1.83-0.48,3.37-0.77,3.46-0.67c0.1,0.1-0.24,2.35-0.77,4.95c-1.3,6.34-1.11,16.15,0.48,22.59
		c1.44,6.06,1.35,5.96,4.71,4.08c4.62-2.6,8.99-6.06,13.22-10.52c3.7-3.89,7.6-9.51,7.6-10.96c0-0.43-0.77-0.62-2.31-0.62
		c-5.67,0-14.71-3.65-19.76-7.93c-7.16-6.1-11.54-14.27-12.5-23.26c-0.19-1.87-0.19-3.41-0.05-3.41c0.14,0,2.02,0.62,4.13,1.39
		c5.29,1.92,10.34,2.64,15.96,2.31c2.55-0.19,5.19-0.48,5.87-0.62c0.77-0.24,0.24,0.38-1.68,1.83c-3.32,2.5-7.07,6.34-9.33,9.66
		c-1.78,2.6-5.05,9.42-4.71,9.8c0.43,0.43,7.6-3.17,10.58-5.33c3.37-2.4,7.69-6.73,9.71-9.76c0.72-1.15,1.39-2.07,1.44-2.07
		c0.05,0-0.19,1.25-0.53,2.79c-0.87,3.56-0.87,9.66,0,14.13c2.45,12.73,12.07,25.37,24.66,32.44c3.7,2.02,3.51,2.16,5.05-3.94
		c0.91-3.65,1.06-5.62,1.06-12.49c0-7.74-0.38-10.86-1.92-14.8c-0.19-0.53,0.53-0.43,3.27,0.34c5.34,1.44,18.61,1.39,24.66-0.1
		c6.11-1.54,5.96-1.39,4.09-4.76c-3.99-7.16-11.88-15.52-17.98-19.08c-1.73-1.01-3.17-1.97-3.17-2.16c0-0.14,1.59-1.25,3.51-2.45
		c4.13-2.55,10.53-8.55,13.75-12.93c2.79-3.75,5.58-8.65,5.19-9.03c-0.19-0.14-2.31-0.82-4.76-1.44
		c-7.88-2.07-20.34-2.02-26.44,0.14c-1.11,0.38-2.02,0.63-2.12,0.53c-0.05-0.05,0.34-1.63,0.87-3.46c0.87-2.84,1.01-4.71,1.06-11.77
		c0-7.21-0.14-9.03-1.06-12.73c-1.54-6.1-1.39-5.96-4.76-4.08c-7.12,3.99-15,11.34-18.89,17.64c-1.2,1.92-2.31,3.51-2.45,3.51
		c-0.19,0-1.15-1.44-2.16-3.17c-3.56-6.1-11.92-13.98-19.09-17.97c-3.37-1.87-3.27-1.97-4.71,4.08c-1.59,6.49-1.78,16.24-0.48,22.68
		c0.58,2.64,1.01,4.95,1.01,5.09c0,0.1-1.44-0.24-3.22-0.77c-2.74-0.82-4.66-0.96-11.68-1.01c-7.21,0-9.04,0.14-12.74,1.06
		c-6.06,1.54-5.91,1.39-4.13,4.71c3.65,6.87,10.53,14.27,17.12,18.5c2.26,1.44,4.04,2.69,4.09,2.84c0,0.14-1.59,1.2-3.46,2.35
		c-9.42,5.86-18.22,17.3-22.26,29.07c-2.88,8.55-4.33,19.56-3.7,28.3c0.19,2.55,0.19,4.66,0,4.66c-0.67,0-7.36-8.17-10.72-13.22
		c-9.23-13.79-14.47-29.12-15.43-45.41c-0.19-2.93-0.48-5.29-0.63-5.29c-0.63,0-6.68,9.66-9.23,14.7
		c-4.13,8.22-6.97,16.87-9.42,29.03c-0.19,1.06-0.29,1.11-0.67,0.34c-1.01-1.73-4.71-13.74-5.72-18.36
		c-4.9-22.83-3.32-46.61,4.62-67.95c0.72-1.87,1.35-3.36,1.39-3.32c0.1,0.1,0.72,2.74,1.44,5.91c2.74,12.45,7.64,24.17,13.99,33.78
		c1.83,2.69,3.46,4.9,3.65,4.9c0.24,0,0.38-1.3,0.38-2.84c0-4.52,1.3-13.46,2.88-19.51c2.64-10.19,6.97-19.85,12.93-28.64
		c3.27-4.85,9.86-12.93,10.58-12.93c0.14,0,0.14,2.02-0.05,4.47c-0.87,10.33,1.88,26.14,5.82,33.83l0.87,1.73l1.49-3.22
		c5.67-12.16,17.55-23.98,29.62-29.65l3.32-1.54l-1.25-0.67c-2.16-1.11-10.96-3.89-15-4.71c-12.4-2.6-29.18-1.25-42.69,3.41
		c-6.63,2.31-16.35,7.06-22.21,10.91c-2.64,1.73-4.86,3.08-5,2.93c-0.43-0.38,6.25-13.07,9.62-18.21
		c9.18-14.13,20.19-25.28,34.47-34.84c5.82-3.89,19.04-11,19.52-10.52c0.14,0.14-1.06,2.16-2.64,4.52
		c-4.04,6.06-9.04,16.29-11.39,23.35c-1.92,5.81-4.13,15.33-3.85,16.53c0.1,0.38,1.92-0.91,4.23-2.93
		c15.24-13.36,34.42-21.24,55.29-22.68l5.05-0.34l-2.69-2.02c-4.57-3.41-13.37-8.17-19.76-10.72c-4.95-1.97-13.7-4.47-21.54-6.1
		c-1.11-0.24-1.01-0.34,0.96-1.2c5.87-2.55,17.6-5.53,27.16-6.92c7.93-1.2,24.23-1.2,32.21-0.05c7.31,1.11,18.08,3.7,24.38,5.96
		c5.53,2.02,5.58,1.87-2.02,3.51c-12.88,2.69-29.28,10-36.54,16.29l-1.68,1.44l2.74,0.05c7.6,0.05,20.53,2.6,28.75,5.62
		c11.25,4.18,20,9.56,31.15,19.13c1.11,0.96,2.02,1.54,2.02,1.25c0-0.24-0.43-2.79-1.01-5.62c-2.12-11.05-7.5-24.12-14.04-34.07
		c-1.73-2.64-3.08-4.85-2.98-5c0.48-0.43,13.7,6.58,19.13,10.19c14.09,9.42,24.81,20.13,34.13,34.02
		c3.65,5.48,10.82,18.93,10.38,19.41c-0.14,0.1-2.36-1.25-5-2.98c-5.63-3.65-15.48-8.55-21.63-10.72
		c-9.71-3.41-18.56-4.85-29.04-4.85c-8.56,0-16.01,1.2-23.13,3.65c-8.03,2.83-7.88,2.64-3.75,4.71c5.87,2.88,10.96,6.54,16.06,11.49
		c5.53,5.33,9.18,10.24,12.45,16.48c1.25,2.4,2.31,4.37,2.4,4.47c0.1,0.1,0.91-1.87,1.88-4.33c3.61-9.42,4.76-16.67,4.52-27.92
		c-0.1-4.13,0-7.54,0.19-7.54c0.63,0,8.22,9.47,11.3,14.08c6.01,9.13,11.01,21.05,13.08,31.43c1.06,5.14,1.97,12.73,1.97,16.34
		l0.05,2.31l1.59-1.87c2.64-3.08,7.6-11.73,10.24-17.92c2.79-6.49,5-13.46,6.39-20.23c0.48-2.5,1.01-4.61,1.11-4.76
		c0.43-0.38,4.09,10.76,5.53,16.92c2.5,10.43,3.17,16.53,3.17,28.35c-0.05,14.85-1.73,25.32-6.25,38.68
		c-2.16,6.3-2.45,6.87-2.74,5.29c-1.01-5.29-3.61-14.99-5-18.74c-2.26-6.2-6.59-14.75-9.95-19.8c-3.75-5.62-4.13-5.91-4.13-3.08
		c0,3.46-0.91,11.1-1.97,16.29c-2.93,14.61-10.72,30.18-21.15,42.05c-1.83,2.11-2.98,3.75-2.6,3.84c1.2,0.29,10.72-1.92,16.44-3.84
		c7.26-2.4,16.63-6.92,22.98-11.1c2.64-1.73,4.86-3.08,5-2.93c0.48,0.43-6.54,13.6-10.24,19.13c-5.19,7.79-8.94,12.35-15.43,18.79
		c-6.44,6.49-11.01,10.24-18.8,15.43c-5.53,3.7-18.7,10.72-19.13,10.24c-0.14-0.14,1.15-2.31,2.79-4.85
		c7.5-11.44,13.41-26.43,14.9-37.77l0.34-2.55l-4.95,4.13c-9.13,7.69-19.71,13.79-30.24,17.44c-7.64,2.69-19.86,4.9-26.88,4.9
		c-1.3,0-2.4,0.14-2.4,0.38c0,0.19,2.21,1.83,4.95,3.65c9.42,6.3,21.68,11.39,33.03,13.74c7.6,1.59,7.55,1.54,2.64,3.32
		C144.76,5338.1,125.96,5340.5,108.8,5338.86z M123.75,5308.06c8.56-7.83,13.56-14.32,18.03-23.69c2.5-5.09,2.79-6.29,1.63-5.81
		c-2.84,1.06-9.38,2.79-13.22,3.46c-8.94,1.54-22.21,0.38-30.96-2.64c-1.59-0.58-2.98-0.91-3.08-0.77
		c-0.38,0.38,2.74,7.3,5.24,11.58c3.8,6.39,8.7,12.3,14.76,17.59c2.02,1.83,3.85,3.27,3.99,3.27
		C120.29,5311.04,121.92,5309.69,123.75,5308.06z M181.68,5284.61c3.7,0,3.8-0.24,3.8-9.42c0-8.36-0.43-12.35-1.97-18.69
		c-0.91-3.7-4.23-12.98-4.52-12.64c-0.1,0.1-1.11,2.02-2.31,4.33c-6.01,11.73-16.54,22.15-28.13,27.87l-3.99,2.02l1.59,0.82
		c6.97,3.56,22.07,6.49,30.38,5.91C178.08,5284.71,180.38,5284.61,181.68,5284.61z M60.82,5242.66c-5.53-14.46-5.53-32.34,0-46.81
		c0.43-1.06-0.87-0.67-5.96,1.73c-4.66,2.26-10.63,5.96-13.85,8.55c-2.36,1.97-9.38,8.89-11.2,11.05l-1.63,2.07l1.35,1.78
		c2.36,3.08,9.28,9.66,13.61,12.88c4.04,3.03,15.67,9.37,17.16,9.37C60.72,5243.28,60.96,5242.99,60.82,5242.66z M186.25,5240.45
		c3.13-1.59,7.69-4.28,10.05-6.01c4.38-3.22,11.01-9.42,14.04-13.12l1.68-2.07l-1.44-1.83c-2.84-3.6-11.49-11.44-15.87-14.42
		c-4.28-2.93-13.56-7.78-14.95-7.78c-0.38,0-0.53,0.34-0.38,0.86c3.08,9.27,4.18,15.43,4.18,23.16s-1.11,13.89-4.18,23.21
		C178.94,5243.81,180.1,5243.48,186.25,5240.45z M98.65,5159.43c0.96-0.43,4.09-1.35,6.92-2.07c4.71-1.15,5.91-1.3,14.52-1.3
		s9.81,0.14,14.52,1.3c2.84,0.72,5.96,1.63,6.92,2.07c2.12,0.87,2.6,0.91,2.6,0.19c0-1.25-4.57-10.09-7.55-14.51
		c-3.03-4.61-10.87-13.26-14.66-16.24l-1.83-1.49l-1.3,1.06c-3.32,2.5-10.24,9.8-13.46,14.13c-3.22,4.28-9.28,15.38-9.28,16.96
		C96.06,5160.34,96.54,5160.29,98.65,5159.43z"/>
	<path d="M66.39,5326.71c-18.7-9.37-34.66-23.5-46.39-41.13c-3.89-5.81-10.91-18.93-10.43-19.41c0.1-0.14,2.16,1.11,4.52,2.69
		c6.11,4.04,16.73,9.18,23.56,11.39c5.43,1.78,14.38,3.89,16.49,3.89c0.82,0,1.01,0.43,1.3,2.79c1.35,10.91,7.79,27.39,14.81,37.87
		c3.37,5.05,3.37,5,2.79,5C72.79,5329.78,69.81,5328.39,66.39,5326.71z"/>
	<path d="M120.58,5254c0-0.14,0.53-1.63,1.15-3.22c2.55-6.39,3.37-14.61,2.02-20.81c-0.34-1.68-0.58-3.03-0.48-3.03
		c0.05,0,0.77,1.06,1.59,2.31c1.73,2.74,6.97,7.88,10.29,10.14c1.3,0.87,3.99,2.35,6.01,3.27l3.7,1.73l-2.4,2.07
		c-3.17,2.79-8.94,5.77-13.51,6.92C125.34,5254.29,120.58,5254.67,120.58,5254z"/>
	<path d="M143.8,5240.83c-3.08-6.68-8.08-12.93-13.41-16.58c-1.44-1.01-2.6-1.87-2.6-1.92c0-0.1,0.58,0.05,1.35,0.34
		c0.72,0.29,3.56,0.63,6.35,0.77c5.72,0.29,10.87-0.53,16.2-2.55c1.73-0.62,3.22-1.15,3.32-1.15c0.1,0,0.19,1.06,0.19,2.31
		c0,5.62-3.7,14.85-7.88,19.56l-2.12,2.4L143.8,5240.83z"/>
	<path d="M85,5216.47c0-5.67,3.65-14.8,7.84-19.51l2.07-2.35l1.73,3.65c0.96,2.02,2.6,4.9,3.65,6.44c2.16,3.17,7.6,8.55,10.34,10.19
		c0.96,0.58,1.78,1.15,1.78,1.2c0,0.05-1.35-0.14-2.98-0.48c-6.25-1.35-14.13-0.58-20.96,2.02c-1.68,0.62-3.17,1.15-3.27,1.15
		S85,5217.72,85,5216.47z"/>
	<path d="M151.54,5217.57c-6.49-2.5-14.57-3.27-20.72-1.97c-1.68,0.34-3.03,0.58-3.03,0.53c0-0.05,0.91-0.72,2.07-1.44
		c5.34-3.56,10.63-9.9,13.65-16.39l1.73-3.8l2.12,2.4c2.55,2.88,6.01,9.85,7.07,14.22c0.82,3.27,1.01,7.69,0.43,7.59
		C154.61,5218.73,153.17,5218.2,151.54,5217.57z"/>
	<path d="M123.75,5208.59c1.25-5.86,0.67-13.12-1.54-19.37c-0.67-1.83-1.3-3.75-1.49-4.18c-0.24-0.77,0.05-0.86,2.07-0.86
		c5.72,0.05,14.95,3.75,19.66,7.83l2.4,2.11l-3.7,1.73c-2.02,0.91-4.71,2.4-6.01,3.27c-3.32,2.26-8.56,7.4-10.29,10.14
		c-0.82,1.25-1.54,2.31-1.59,2.31C123.17,5211.57,123.41,5210.22,123.75,5208.59z"/>
	<path d="M115.58,5209.6c-2.79-4.76-10.38-11-16.97-13.98l-3.27-1.44l2.4-2.16c2.93-2.6,9.9-6.1,14.18-7.06
		c2.84-0.67,7.69-1.06,7.69-0.58c0,0.1-0.58,1.68-1.25,3.46c-2.4,6.39-3.22,14.46-2.12,20.38c0.29,1.39,0.43,2.64,0.34,2.69
		C116.49,5210.99,116.06,5210.41,115.58,5209.6z"/>
</g>
</svg>
